<svg width="410" height="374" viewBox="0 0 410 374" fill="none" xmlns="http://www.w3.org/2000/svg">
<path d="M170.479 65.6059C121.12 74.8021 67.1549 18.9678 26.3518 72.8315C-2.60515 117.499 49.3857 152.614 49.3858 189.098C49.3859 234.423 -23.6648 259.384 7.92466 306.022C39.5141 352.66 111.248 294.198 156 306.022C200.752 317.846 208.649 378.935 247.478 373.68C286.307 368.425 277.093 302.081 308.682 288.286C340.272 274.492 375.152 301.424 392.921 265.296C410.69 229.168 346.195 203.55 348.169 172.02C350.144 140.49 426.485 122.097 406.741 89.2534C386.998 56.4096 331.716 100.42 308.682 80.0571C285.648 59.694 311.973 7.80087 261.956 0.575242C211.94 -6.65038 219.837 56.4096 170.479 65.6059Z" fill="black"/>
</svg>
