<svg width="585" height="208" viewBox="0 0 585 208" fill="none" xmlns="http://www.w3.org/2000/svg">
<path d="M318.251 18.5157C255.251 19.5157 226.251 -5.48433 153.751 7.01567C83.2506 22.5157 43.2507 11.0156 11.7507 50.5156C-19.7493 90.0156 18.2506 138.016 53.2506 151.516C88.2507 165.016 102.251 189.016 153.751 197.516C211.915 207.116 259.251 184.516 322.251 189.016C385.251 193.516 403.751 214.516 472.251 205.016C540.75 195.516 551.251 165.516 572.251 138.016C593.251 110.516 586.251 80.5156 557.751 56.0156C529.251 31.5156 516.25 7.01567 462.751 1.01568C409.251 -4.98431 381.251 17.5157 318.251 18.5157Z" fill="black"/>
</svg>
