<svg width="413" height="400" viewBox="0 0 413 400" fill="none" xmlns="http://www.w3.org/2000/svg">
<path d="M106.787 8.23665C72.7238 26.0104 126.781 78.5911 97.1607 100.808C73.4643 123.026 26.0714 64.5202 12.0017 88.9592C-2.06805 113.398 77.1669 128.95 69.0212 153.389C60.8755 177.828 -3.54905 148.205 0.153514 185.234C3.85608 222.262 70.5023 197.823 77.1669 225.965C83.8315 254.107 26.0715 269.659 40.8818 297.801C55.692 325.943 106.787 269.659 120.857 297.801C134.927 325.943 101.604 360.75 120.857 380.005C140.11 399.259 163.066 328.164 184.541 336.311C206.016 344.457 196.389 400 221.567 400C246.744 400 238.599 343.716 256.371 336.311C274.143 328.905 294.878 385.929 319.314 366.674C343.751 347.419 303.764 317.056 319.314 297.801C334.865 278.546 365.226 334.83 391.885 297.801C418.543 260.772 356.34 237.814 354.859 208.191C353.378 178.569 418.543 197.823 412.619 164.498C406.695 131.172 337.087 146.724 319.314 118.582C301.542 90.4403 366.707 66.0014 337.087 41.5625C307.466 17.1235 281.548 63.7797 256.371 55.6334C231.193 47.487 272.662 8.23665 238.599 0.83092C204.535 -6.57481 215.643 37.8596 177.136 41.5625C138.629 45.2653 140.851 -9.53711 106.787 8.23665Z" fill="black"/>
</svg>
