<svg width="314" height="290" viewBox="0 0 314 290" fill="none" xmlns="http://www.w3.org/2000/svg">
<path d="M43 50.6374C36 56.6374 18 48.6374 9.49996 56.1374C-8.01086e-05 63.6374 16.5 83.1374 16 96.1374C15.5 109.137 0 114.137 0 124.137C0 134.137 22 138.137 23 146.637C24 155.137 0.99996 159.637 1.99996 168.137C2.99996 176.637 27 170.637 31.5 178.637C36 186.637 21 199.137 27 208.137C33 217.137 51.5 209.637 56 216.137C60.5 222.637 51.5 238.137 59.5 247.137C67.5 256.137 77.5 243.137 86 250.137C94.5 257.137 90.5 268.637 98 272.637C105.5 276.637 113 263.137 122 266.637C131 270.137 129.5 283.637 139 286.637C148.5 289.637 155 272.637 163 275.137C171 277.637 170 288.637 182 289.137C194 289.637 204.5 272.637 215.5 272.637C226.5 272.637 233 278.137 241 272.637C249 267.137 241 253.637 245.5 247.137C250 240.637 265 249.637 272 243.137C279 236.637 264.5 227.637 272 220.137C279.5 212.637 291 220.137 296.5 213.637C302 207.137 290.5 194.637 293.5 187.137C296.5 179.637 314 181.137 314 170.637C314 160.137 299 155.637 299 146.637C299 137.637 314 134.637 314 124.137C314 113.637 302.5 113.637 299 103.637C295.5 93.6374 307.5 88.6374 306.5 78.1374C305.5 67.6374 290 65.1374 284 60.6374C278 56.1374 285.5 45.1374 276 39.1374C266.5 33.1374 248.5 44.1374 241 41.1374C233.5 38.1374 239.5 18.6374 229 11.6374C218.5 4.63738 194 23.1374 186 18.6374C178 14.1374 180 2.1374 167.5 0.137374C155 -1.86265 146.5 18.6374 136 18.6374C125.5 18.6374 119 1.1374 108.5 2.1374C98 3.1374 99.5 18.1374 86 23.1374C72.5 28.1374 62.5 18.6374 51.5 23.1374C40.5 27.6374 50 44.6374 43 50.6374Z" fill="black"/>
</svg>
