<svg width="500" height="356" viewBox="0 0 500 356" fill="none" xmlns="http://www.w3.org/2000/svg">
<path d="M338.144 30.7558C301.89 21.8016 296.042 0 258.228 0C220.414 0 207.94 14.4046 168.956 19.0764C129.082 23.8549 102.684 11.2901 73.8366 26.8627C44.9889 42.4352 42.6499 70.8552 30.565 97.3286C18.4801 123.802 -4.96787 154.558 0.937565 187.649C7.95461 226.97 40.7007 247.604 67.5993 268.237C94.4979 288.871 98.7861 334.421 146.736 340.261C194.389 346.064 211.058 322.352 258.228 324.688C305.398 327.024 333.466 358.558 377.128 355.833C420.789 353.108 450.805 324.688 457.044 279.917C464 230 501.875 216.848 499.926 180.642C497.977 144.436 468.739 136.26 457.044 112.901C445.349 89.5423 449.247 56.0612 421.959 40.878C394.671 25.6947 374.399 39.71 338.144 30.7558Z" fill="black"/>
</svg>
