<svg width="322" height="304" viewBox="0 0 322 304" fill="none" xmlns="http://www.w3.org/2000/svg">
<path d="M164.178 16.0437C140.678 16.5437 145.178 4.0437 127.178 4.0437C109.178 4.0437 104.678 16.0437 95.178 20.0437C85.6779 24.0437 69.178 16.0437 56.178 26.5437C46.2611 34.5535 47.678 47.5437 38.178 61.5437C28.6779 75.5437 14.6781 71.5437 10.178 87.0437C5.67788 102.544 15.6779 115.544 14.6779 128.544C13.6779 141.544 -1.82208 142.544 0.177923 158.044C2.17792 173.544 15.678 169.044 19.178 185.544C22.678 202.044 14.178 204.044 19.178 220.044C24.178 236.044 41.178 223.044 47.678 234.544C54.178 246.044 41.178 267.544 52.178 274.544C63.178 281.544 68.678 267.544 88.678 274.544C108.678 281.544 104.678 298.544 127.178 303.044C149.678 307.544 160.178 288.544 179.678 287.544C199.178 286.544 214.678 300.044 233.178 298.544C251.678 297.044 249.178 279.544 263.178 267.544C277.178 255.544 288.678 263.044 298.678 248.544C308.678 234.044 297.178 220.044 298.678 204.044C300.178 188.044 319.178 179.044 321.178 163.544C323.178 148.044 306.678 140.544 306.678 124.044C306.678 107.544 317.678 100.044 312.678 87.0437C307.678 74.0437 292.678 76.0437 288.678 61.5437C284.678 47.0437 295.178 37.5437 281.178 26.5437C267.178 15.5437 254.678 26.5437 238.178 20.0437C221.678 13.5437 219.178 1.04367 203.178 0.0436724C187.178 -0.956328 187.678 15.5437 164.178 16.0437Z" fill="black"/>
</svg>
