<svg width="693" height="183" viewBox="0 0 693 183" fill="none" xmlns="http://www.w3.org/2000/svg">
<path d="M76.9584 26C59.4584 33 55.4583 14.5 36.9583 31.5C22.8112 44.5 11.9583 38 3.45841 50C-2.87999 58.9485 0.958409 70 3.45841 80.5C5.95841 91 -0.541591 99.5 3.45841 110C7.45841 120.5 20.9584 116 29.4584 124C37.9584 132 31.4584 146.5 45.4584 153.5C59.4584 160.5 65.4584 150.5 76.9584 153.5C88.4584 156.5 94.9584 170.5 112.958 173C130.958 175.5 139.958 168 155.958 168C171.958 168 191.458 180.5 207.458 180.5C223.458 180.5 237.958 170.5 255.458 170.5C272.958 170.5 282.458 179 301.958 180.5C321.458 182 336.958 170.5 354.958 170.5C372.958 170.5 382.958 184 403.958 182.5C424.958 181 438.958 168.5 458.958 168C478.958 167.5 488.958 179 502.458 176C515.958 173 521.958 162 538.958 158.5C555.958 155 573.958 164 582.958 162C591.958 160 595.958 147 608.458 146.5C620.958 146 629.958 154 640.958 150.5C651.958 147 652.458 137.5 659.458 129.5C666.458 121.5 686.458 123 691.458 113C696.458 103 684.458 93 679.458 83C674.458 73 689.458 61 679.458 54C669.458 47 658.458 52 640.958 44.5C623.458 37 620.958 26 602.958 23.5C584.958 21 569.958 28.5 554.958 26C539.958 23.5 534.458 10 513.458 7.50001C492.458 5.00002 485.958 18 463.958 18C441.958 18 416.458 7.50001 396.458 5C376.458 2.49999 362.958 14.5 346.958 14.5C330.958 14.5 319.958 0 299.958 0C279.958 0 262.958 14.5 245.958 14.5C228.958 14.5 225.458 0 203.958 0C182.458 0 175.458 14.5 155.958 14.5C136.458 14.5 128.958 6.00001 112.958 7.50001C96.9584 9.00001 94.4584 19 76.9584 26Z" fill="black"/>
</svg>
