<svg width="426" height="315" viewBox="0 0 426 315" fill="none" xmlns="http://www.w3.org/2000/svg">
<path d="M246.621 20.6571C211.162 22.3675 194.251 -5.56648 156.065 1.00225C121.152 7.00794 120.061 40.858 81.8745 50.6854C43.6882 60.5128 12.5935 58.329 2.2287 89.9952C-8.07472 121.474 20.2307 137.494 28.4135 181.718C36.5963 225.941 25.2682 254.878 45.3248 272.349C72.223 295.779 93.8759 268.527 145.155 277.809C196.433 287.09 210.071 316.572 246.621 314.934C283.171 313.296 283.716 278.354 320.811 254.878C357.907 231.401 416.822 235.223 425.005 181.718C431.518 139.132 404.821 125.483 380.818 94.9089C356.815 64.3346 368.271 39.2201 342.086 20.6571C315.901 2.09408 291.899 18.4731 246.621 20.6571Z" fill="black"/>
</svg>
