<svg width="503" height="431" viewBox="0 0 503 431" fill="none" xmlns="http://www.w3.org/2000/svg">
<path d="M233.325 85.7048C193.325 102.705 154.325 27.7048 80.3246 59.7048C26.8247 82.8399 8.82471 111.205 2.32458 142.205C-3.10596 168.104 -3.17542 215.205 49.8246 232.205C102.825 249.205 95.8246 292.205 94.3246 314.205C92.8246 336.205 49.8246 394.205 123.325 423.205C196.825 452.205 222.325 378.705 327.825 394.205C433.325 409.705 443.325 316.705 394.825 292.205C346.325 267.705 369.325 191.205 426.825 204.205C484.325 217.205 520.325 158.705 493.325 117.705C466.325 76.7048 402.325 115.205 394.825 59.7048C387.325 4.20484 331.325 -10.2952 293.325 6.70484C255.325 23.7048 273.325 68.7048 233.325 85.7048Z" fill="black"/>
</svg>
