<svg width="489" height="297" viewBox="0 0 489 297" fill="none" xmlns="http://www.w3.org/2000/svg">
<path d="M219.443 77.001C135.181 50.9397 22.8047 62.4407 5.91308 100.011C-10.9785 137.582 15.098 158.779 22.4948 204.69C28.6856 243.115 25.9517 283.368 71.2907 295.068C141.658 313.226 169.675 168.644 219.229 186.465C268.783 204.287 237.742 284.342 303.606 278.642C369.47 272.942 363.77 207.079 391.65 209.851C419.531 212.623 447.174 261.785 466.977 242.269C486.779 222.753 444.96 188.825 442.417 159.214C439.873 129.604 500.163 125.167 486.599 97.5936C471.174 66.2359 419.24 121.76 408.316 86.976C397.392 52.1922 473.04 49.3334 452.289 15.7396C436.981 -9.04262 400.325 -2.91354 376.348 36.2189C354.622 71.6766 303.705 103.062 219.443 77.001Z" fill="black"/>
</svg>
