<svg width="557" height="247" viewBox="0 0 557 247" fill="none" xmlns="http://www.w3.org/2000/svg">
<path d="M136.542 68.0596C109.542 73.0596 104.3 18.0596 76.5422 32.5596C48.7849 47.0596 71.5422 68.0596 59.0422 84.0596C46.5422 100.06 1.54212 79.0596 0.0421224 108.06C-1.45788 137.06 37.542 121.56 47.042 148.56C56.542 175.56 12.542 208.56 37.542 225.06C62.542 241.56 71.542 190.56 107.042 196.56C142.542 202.56 146.542 251.56 171.042 245.56C195.542 239.56 175.542 190.56 203.042 182.06C230.542 173.56 227.542 243.56 257.042 240.56C286.542 237.56 275.042 184.06 302.042 182.06C329.042 180.06 330.042 233.56 355.042 233.56C380.042 233.56 381.542 189.06 406.042 190.56C430.542 192.06 430.042 242.06 463.042 233.56C496.042 225.06 475.042 178.56 498.042 167.06C521.042 155.56 552.542 170.06 556.042 140.06C559.542 110.06 521.542 119.56 508.542 99.5596C495.542 79.5596 538.542 54.0596 508.542 37.0596C478.542 20.0596 456.542 68.0596 430.042 68.0596C403.542 68.0596 422.542 16.0596 393.042 11.0596C363.542 6.05958 366.042 47.0596 338.042 47.0596C310.042 47.0596 319.042 -1.9404 285.042 0.0596C251.042 2.0596 255.542 55.5596 227.542 54.0596C199.542 52.5596 221.042 13.5596 187.042 11.0596C153.042 8.55959 163.542 63.0596 136.542 68.0596Z" fill="black"/>
</svg>
