<svg width="518" height="371" viewBox="0 0 518 371" fill="none" xmlns="http://www.w3.org/2000/svg">
<path d="M180.567 90.1993C156.294 97.0462 116.462 50.9847 81.6081 90.1993C57.9576 118.832 89.6991 138.751 69.7828 156.179C55.4834 168.693 2.56523 142.485 0.0756866 179.833C-2.41385 217.18 57.3352 210.955 57.9576 238.966C58.5799 266.976 8.16676 297.476 43.6427 326.731C79.1187 355.987 106.504 291.874 143.847 302.456C179.681 312.61 157.539 373.415 211.687 370.926C255.876 368.894 234.715 315.527 283.261 308.68C331.807 301.833 350.865 354.814 384.087 336.691C411.472 321.752 384.087 294.364 405.248 263.241C426.409 232.119 498.444 296.396 515.411 238.966C531.592 184.19 466.864 187.302 461.263 156.179C453.757 114.475 496.739 104.516 478.69 71.5257C459.437 36.3358 412.717 72.7706 384.087 60.3215C355.458 47.8724 382.22 10.5252 347.367 1.18844C312.513 -8.14836 305.667 40.403 275.17 46.6275C244.673 52.8521 233.47 14.26 211.687 24.8417C189.903 35.4234 204.84 83.3523 180.567 90.1993Z" fill="black"/>
</svg>
