<svg width="525" height="323" viewBox="0 0 525 323" fill="none" xmlns="http://www.w3.org/2000/svg">
<path d="M250.627 73.5C194.627 69 224.127 0 157.127 0C96.627 0 82.2231 36.7321 77.6272 73.5C72.1272 117.5 -22.7873 124.995 5.12691 177.5C26.1269 217 108.627 156.5 151.127 207C193.627 257.5 157.127 305 201.627 320.5C246.127 336 279.127 274 323.627 278C368.127 282 366.127 331 403.127 320.5C448.111 307.734 403.127 258 424.127 225.5C445.127 193 524.627 221 524.627 177.5C524.628 124.535 442.127 157.5 403.127 126C364.127 94.5 398.627 32.5 349.127 26.5C299.627 20.5 306.627 78 250.627 73.5Z" fill="black"/>
</svg>
