<svg width="453" height="425" viewBox="0 0 453 425" fill="none" xmlns="http://www.w3.org/2000/svg">
<path d="M164.647 80.6069C127.884 101.478 74.4111 76.0153 44.3325 90.625C7.56982 108.481 -15.407 157.83 12.165 186.214C39.7371 214.599 104.072 183.71 92.7923 213.764C81.5129 243.818 98.2232 279.716 145.43 266.359C192.637 253.001 213.524 176.614 247.781 213.764C282.037 250.914 233.577 274.29 242.768 348.59C251.958 422.891 342.386 442.562 373.526 409.534C400.68 380.732 349.714 292.239 406.529 279.716C463.344 267.194 433.898 212.554 428.252 162.839C421.568 103.982 482.979 41.7869 433.683 23.003C384.388 4.21908 358.487 76.8501 307.938 61.4056C257.389 45.9611 262.82 -7.46867 216.449 0.879729C177.597 7.87433 201.41 59.7359 164.647 80.6069Z" fill="black"/>
</svg>
