<svg width="334" height="309" viewBox="0 0 334 309" fill="none" xmlns="http://www.w3.org/2000/svg">
<path d="M35.4929 61.8962C31.3293 72.9631 16.0627 74.3464 12.5931 86.1051C8.42947 98.5554 13.287 108.931 12.5931 118.614C11.8991 128.298 -1.2856 137.29 0.102269 150.432C1.49014 163.574 18.1446 167.724 22.3082 176.716C26.4718 185.707 18.1446 202.308 22.3082 212.683C26.4718 223.058 44.514 223.75 51.4534 228.592C58.3927 233.434 48.6776 254.184 55.617 265.251C62.5563 276.318 78.5168 271.476 88.2319 276.318C97.947 281.16 101.417 297.76 116.683 299.144C131.95 300.527 141.665 293.61 153.462 293.61C165.259 293.61 170.81 310.902 186.077 308.827C201.343 306.752 206.895 297.069 218.691 293.61C230.488 290.152 241.591 297.069 252.694 293.61C263.797 290.152 265.185 272.168 274.9 265.251C284.615 258.334 299.882 262.484 305.433 254.184C310.985 245.884 308.209 233.434 312.373 223.75C316.536 214.067 329.027 211.991 333.191 198.849C337.354 185.707 324.169 178.791 322.782 167.724C321.394 156.657 333.191 147.665 333.191 137.29C333.191 126.914 321.394 120.689 315.842 108.931C310.291 97.172 321.394 84.03 315.842 75.0381C310.291 66.0462 291.555 61.8962 285.309 53.5959C279.064 45.2957 286.003 40.4539 274.9 30.0787C263.797 19.7035 252 23.8535 241.591 20.3951C231.182 16.9367 233.264 5.86976 218.691 1.02797C204.119 -3.81381 195.098 10.0199 182.607 10.0199C170.116 10.0199 158.319 -0.355394 145.828 1.02797C133.338 2.41134 129.868 14.8617 116.683 16.9367C103.498 19.0118 100.723 7.25316 88.2319 10.0199C75.7411 12.7866 75.7411 25.9286 65.3321 30.0787C54.923 34.2288 45.9019 28.0037 39.6565 36.3039C33.4111 44.6041 39.6565 50.8292 35.4929 61.8962Z" fill="black"/>
</svg>
